M48
; DRILL file {KiCad 9.0.5} date 2026-02-19T02:29:41-0700
; FORMAT={-:-/ absolute / metric / decimal}
; #@! TF.CreationDate,2026-02-19T02:29:41-07:00
; #@! TF.GenerationSoftware,Kicad,Pcbnew,9.0.5
; #@! TF.FileFunction,MixedPlating,1,2
FMAT,2
METRIC
; #@! TA.AperFunction,Plated,PTH,ViaDrill
T1C0.400
; #@! TA.AperFunction,Plated,PTH,ComponentDrill
T2C1.000
; #@! TA.AperFunction,Plated,PTH,ComponentDrill
T3C1.200
; #@! TA.AperFunction,NonPlated,NPTH,ComponentDrill
T4C2.100
; #@! TA.AperFunction,NonPlated,NPTH,ComponentDrill
T5C2.200
; #@! TA.AperFunction,NonPlated,NPTH,ComponentDrill
T6C5.050
%
G90
G05
T1
X146.05Y-136.15
X148.0Y-82.5
X149.95Y-119.15
T2
X132.25Y-84.75
X132.25Y-91.25
X136.75Y-84.75
X136.75Y-91.25
X140.38Y-75.03
X140.38Y-77.57
X140.38Y-80.11
X140.38Y-82.65
X140.38Y-85.19
X140.38Y-87.73
X140.38Y-90.27
X140.38Y-92.81
X140.38Y-95.35
X140.38Y-97.89
X140.38Y-100.43
X140.38Y-102.97
X155.62Y-75.03
X155.62Y-77.57
X155.62Y-80.11
X155.62Y-82.65
X155.62Y-85.19
X155.62Y-87.73
X155.62Y-90.27
X155.62Y-92.81
X155.62Y-95.35
X155.62Y-97.89
X155.62Y-100.43
X155.62Y-102.97
T3
X31.0Y-73.6
X31.0Y-90.6
X31.0Y-107.6
X31.0Y-124.6
X36.0Y-75.7
X36.0Y-92.7
X36.0Y-109.7
X36.0Y-126.7
X49.0Y-73.6
X49.0Y-90.6
X49.0Y-107.6
X49.0Y-124.6
X54.0Y-75.7
X54.0Y-92.7
X54.0Y-109.7
X54.0Y-126.7
X67.0Y-73.6
X67.0Y-90.6
X67.0Y-107.6
X67.0Y-124.6
X72.0Y-75.7
X72.0Y-92.7
X72.0Y-109.7
X72.0Y-126.7
X85.0Y-73.6
X85.0Y-90.6
X85.0Y-107.6
X85.0Y-124.6
X90.0Y-75.7
X90.0Y-92.7
X90.0Y-109.7
X90.0Y-126.7
X103.0Y-73.6
X103.0Y-90.6
X103.0Y-107.6
X103.0Y-124.6
X108.0Y-75.7
X108.0Y-92.7
X108.0Y-109.7
X108.0Y-126.7
X121.0Y-73.6
X121.0Y-90.6
X121.0Y-107.6
X121.0Y-124.6
X126.0Y-75.7
X126.0Y-92.7
X126.0Y-109.7
X126.0Y-126.7
X139.0Y-107.6
X139.0Y-124.6
X144.0Y-109.7
X144.0Y-126.7
X157.0Y-107.6
X157.0Y-124.6
X162.0Y-109.7
X162.0Y-126.7
X175.0Y-73.6
X175.0Y-90.6
X175.0Y-107.6
X175.0Y-124.6
X180.0Y-75.7
X180.0Y-92.7
X180.0Y-109.7
X180.0Y-126.7
X193.0Y-73.6
X193.0Y-90.6
X193.0Y-107.6
X193.0Y-124.6
X198.0Y-75.7
X198.0Y-92.7
X198.0Y-109.7
X198.0Y-126.7
X211.0Y-73.6
X211.0Y-90.6
X211.0Y-107.6
X211.0Y-124.6
X216.0Y-75.7
X216.0Y-92.7
X216.0Y-109.7
X216.0Y-126.7
X229.0Y-73.6
X229.0Y-90.6
X229.0Y-107.6
X229.0Y-124.6
X234.0Y-75.7
X234.0Y-92.7
X234.0Y-109.7
X234.0Y-126.7
X247.0Y-73.6
X247.0Y-90.6
X247.0Y-107.6
X247.0Y-124.6
X252.0Y-75.7
X252.0Y-92.7
X252.0Y-109.7
X252.0Y-126.7
X265.0Y-73.6
X265.0Y-90.6
X265.0Y-107.6
X265.0Y-124.6
X270.0Y-75.7
X270.0Y-92.7
X270.0Y-109.7
X270.0Y-126.7
T4
X40.0Y-88.0
X40.0Y-122.0
X134.5Y-100.5
X161.5Y-75.5
X161.5Y-100.5
X256.0Y-88.0
X256.0Y-122.0
T5
X134.5Y-75.5
T6
X31.0Y-79.5
X31.0Y-96.5
X31.0Y-113.5
X31.0Y-130.5
X49.0Y-79.5
X49.0Y-96.5
X49.0Y-113.5
X49.0Y-130.5
X67.0Y-79.5
X67.0Y-96.5
X67.0Y-113.5
X67.0Y-130.5
X85.0Y-79.5
X85.0Y-96.5
X85.0Y-113.5
X85.0Y-130.5
X103.0Y-79.5
X103.0Y-96.5
X103.0Y-113.5
X103.0Y-130.5
X121.0Y-79.5
X121.0Y-96.5
X121.0Y-113.5
X121.0Y-130.5
X139.0Y-113.5
X139.0Y-130.5
X157.0Y-113.5
X157.0Y-130.5
X175.0Y-79.5
X175.0Y-96.5
X175.0Y-113.5
X175.0Y-130.5
X193.0Y-79.5
X193.0Y-96.5
X193.0Y-113.5
X193.0Y-130.5
X211.0Y-79.5
X211.0Y-96.5
X211.0Y-113.5
X211.0Y-130.5
X229.0Y-79.5
X229.0Y-96.5
X229.0Y-113.5
X229.0Y-130.5
X247.0Y-79.5
X247.0Y-96.5
X247.0Y-113.5
X247.0Y-130.5
X265.0Y-79.5
X265.0Y-96.5
X265.0Y-113.5
X265.0Y-130.5
M30
