<svg xmlns="http://www.w3.org/2000/svg" viewBox="0 10.75 66.0999984741211 35.650001525878906" data-asc="0.918" width="66.0999984741211" height="35.650001525878906"><defs/><g fill="#000000"><g transform="translate(0, 0)"><path d="M7.75 46.40Q5.85 46.40 4.17 45.95Q2.50 45.50 1.10 44.70Q0.65 44.45 0.33 44Q0 43.55 0 42.85Q0 42.05 0.53 41.42Q1.05 40.80 1.90 40.80Q2.40 40.80 2.80 41Q3.80 41.50 4.97 41.80Q6.15 42.10 7.45 42.10Q8.95 42.10 10.33 41.55Q11.70 41 12.60 39.42Q13.50 37.85 13.50 34.70L13.50 13.05Q13.50 12.10 14.15 11.42Q14.80 10.75 15.75 10.75Q16.70 10.75 17.38 11.42Q18.05 12.10 18.05 13.05L18.05 34.40Q18.05 38 17.18 40.32Q16.30 42.65 14.83 43.98Q13.35 45.30 11.50 45.85Q9.65 46.40 7.75 46.40ZM29.75 46.15Q28.80 46.15 28.15 45.50Q27.50 44.85 27.50 43.90L27.50 14.05Q27.50 12.70 28.45 11.72Q29.40 10.75 30.75 10.75L32.40 10.75Q33.40 10.75 34.25 11.35Q35.10 11.95 35.45 12.85L46.80 41.15L58.15 12.85Q58.55 11.95 59.38 11.35Q60.20 10.75 61.20 10.75L62.85 10.75Q64.20 10.75 65.15 11.72Q66.10 12.70 66.10 14.05L66.10 43.90Q66.10 44.85 65.45 45.50Q64.80 46.15 63.85 46.15Q62.90 46.15 62.23 45.50Q61.55 44.85 61.55 43.90L61.55 15.50L50 44.05Q49.60 45 48.75 45.57Q47.90 46.15 46.80 46.15Q45.70 46.15 44.85 45.57Q44 45 43.60 44.05L32.05 15.50L32.05 43.90Q32.05 44.85 31.38 45.50Q30.70 46.15 29.75 46.15Z"/></g></g></svg>