<svg xmlns="http://www.w3.org/2000/svg" viewBox="0 9.149999618530273 465.54998779296875 101.55000305175781" data-asc="0.918" width="465.54998779296875" height="101.55000305175781"><defs/><g fill="#000000"><g transform="translate(0, 0)"><path d="M2.25 45.90Q1.30 45.90 0.65 45.25Q0 44.60 0 43.65L0 13.30Q0 12.35 0.65 11.67Q1.30 11 2.25 11L12.30 11Q16.80 11 20.10 12.52Q23.40 14.05 25.60 16.57Q27.80 19.10 28.88 22.20Q29.95 25.30 29.95 28.45Q29.95 31.60 28.88 34.70Q27.80 37.80 25.60 40.32Q23.40 42.85 20.10 44.38Q16.80 45.90 12.30 45.90L2.25 45.90M4.55 41.65L11.75 41.65Q15.95 41.65 19.02 39.97Q22.10 38.30 23.77 35.32Q25.45 32.35 25.45 28.45Q25.45 24.55 23.77 21.57Q22.10 18.60 19.02 16.92Q15.95 15.25 11.75 15.25L4.55 15.25L4.55 41.65ZM48.05 46.40Q41.95 46.40 38.53 42.92Q35.10 39.45 35.10 33.15Q35.10 29.75 36.35 26.72Q37.60 23.70 40.25 21.80Q42.90 19.90 47.05 19.90Q50.90 19.90 53.55 21.67Q56.20 23.45 57.58 26.30Q58.95 29.15 58.95 32.50Q58.95 33.45 58.33 34.10Q57.70 34.75 56.65 34.75L39.70 34.75Q40.10 38.10 42.25 40.13Q44.40 42.15 48.45 42.15Q50.70 42.15 52.25 41.73Q53.80 41.30 55.20 40.60Q55.60 40.40 56.10 40.40Q56.90 40.40 57.50 40.95Q58.10 41.50 58.10 42.35Q58.10 42.95 57.73 43.42Q57.35 43.90 56.80 44.20Q55.15 45.15 53.23 45.77Q51.30 46.40 48.05 46.40M39.70 31.05L54.45 31.05Q54.30 28.45 53.13 26.85Q51.95 25.25 50.30 24.50Q48.65 23.75 47.05 23.75Q45.45 23.75 43.80 24.50Q42.15 25.25 41 26.85Q39.85 28.45 39.70 31.05ZM73.20 46.40Q70.45 46.40 68.22 45.80Q66 45.20 64.10 44.15Q63.25 43.55 63.25 42.50Q63.25 41.75 63.80 41.13Q64.35 40.50 65.20 40.50Q65.65 40.50 66.10 40.70Q67.45 41.30 69.08 41.75Q70.70 42.20 72.90 42.20Q75.80 42.20 77.13 41.27Q78.45 40.35 78.45 38.65Q78.45 37.55 77.38 36.95Q76.30 36.35 74.58 35.92Q72.85 35.50 70.95 35.02Q69.05 34.55 67.33 33.72Q65.60 32.90 64.53 31.47Q63.45 30.05 63.45 27.80Q63.45 24.40 65.90 22.15Q68.35 19.90 73.20 19.90Q75.25 19.90 77.08 20.25Q78.90 20.60 80.45 21.15Q81.15 21.35 81.53 21.92Q81.90 22.50 81.90 23.05Q81.90 23.85 81.33 24.45Q80.75 25.05 79.90 25.05Q79.70 25.05 79.55 25.02Q79.40 25.00 79.25 24.95Q78.05 24.55 76.63 24.30Q75.20 24.05 73.55 24.05Q70.80 24.05 69.30 25.05Q67.80 26.05 67.80 27.55Q67.80 28.85 68.88 29.55Q69.95 30.25 71.67 30.67Q73.40 31.10 75.33 31.55Q77.25 32 78.97 32.82Q80.70 33.65 81.78 35.10Q82.85 36.55 82.85 39Q82.85 42.05 80.42 44.23Q78 46.40 73.20 46.40ZM91.10 15.20Q90.05 15.20 89.30 14.45Q88.55 13.70 88.55 12.65L88.55 12.45Q88.55 11.40 89.30 10.65Q90.05 9.90 91.10 9.90L91.40 9.90Q92.45 9.90 93.20 10.65Q93.95 11.40 93.95 12.45L93.95 12.65Q93.95 13.70 93.20 14.45Q92.45 15.20 91.40 15.20L91.10 15.20M91.20 46.15Q90.25 46.15 89.60 45.50Q88.95 44.85 88.95 43.90L88.95 22.45Q88.95 21.45 89.60 20.80Q90.25 20.15 91.20 20.15Q92.20 20.15 92.85 20.80Q93.50 21.45 93.50 22.45L93.50 43.90Q93.50 44.85 92.85 45.50Q92.20 46.15 91.20 46.15ZM113.30 57.90Q110.25 57.90 107.30 57.10Q104.35 56.30 102.60 55.30Q102.25 55.05 101.98 54.65Q101.70 54.25 101.70 53.55Q101.70 52.80 102.28 52.15Q102.85 51.50 103.70 51.50Q103.95 51.50 104.17 51.55Q104.40 51.60 104.60 51.70Q106.20 52.50 108.25 53.05Q110.30 53.60 112.85 53.60Q120.50 53.60 120.50 45.45L120.50 42.10Q118.95 43.75 116.85 44.82Q114.75 45.90 111.95 45.90Q109.85 45.90 107.73 45.10Q105.60 44.30 103.83 42.70Q102.05 41.10 100.95 38.65Q99.85 36.20 99.85 32.90Q99.85 29.60 100.95 27.15Q102.05 24.70 103.83 23.10Q105.60 21.50 107.73 20.70Q109.85 19.90 111.95 19.90Q114.75 19.90 116.85 20.97Q118.95 22.05 120.50 23.70L120.50 22.45Q120.50 21.50 121.15 20.82Q121.80 20.15 122.75 20.15Q123.70 20.15 124.38 20.82Q125.05 21.50 125.05 22.45L125.05 44.80Q125.05 51.10 122 54.50Q118.95 57.90 113.30 57.90M112.90 41.75Q115.50 41.75 117.30 40.60Q119.10 39.45 120.50 38.05L120.50 27.75Q119.10 26.30 117.30 25.17Q115.50 24.05 112.90 24.05Q110.55 24.05 108.60 25.00Q106.65 25.95 105.53 27.92Q104.40 29.90 104.40 32.90Q104.40 35.90 105.53 37.88Q106.65 39.85 108.60 40.80Q110.55 41.75 112.90 41.75ZM135.20 46.15Q134.25 46.15 133.60 45.50Q132.95 44.85 132.95 43.90L132.95 22.45Q132.95 21.45 133.60 20.80Q134.25 20.15 135.20 20.15Q136.15 20.15 136.82 20.80Q137.50 21.45 137.50 22.45L137.50 24.50Q139.10 22.75 141.28 21.32Q143.45 19.90 146.80 19.90Q149.65 19.90 151.65 21.22Q153.65 22.55 154.70 24.77Q155.75 27.00 155.75 29.70L155.75 43.90Q155.75 44.85 155.07 45.50Q154.40 46.15 153.45 46.15Q152.50 46.15 151.85 45.50Q151.20 44.85 151.20 43.90L151.20 30.20Q151.20 27.35 149.93 25.72Q148.65 24.10 145.70 24.10Q143 24.10 141 25.55Q139 27.00 137.50 28.90L137.50 43.90Q137.50 44.85 136.82 45.50Q136.15 46.15 135.20 46.15ZM174.80 46.40Q168.70 46.40 165.27 42.92Q161.85 39.45 161.85 33.15Q161.85 29.75 163.10 26.72Q164.35 23.70 167 21.80Q169.65 19.90 173.80 19.90Q177.65 19.90 180.30 21.67Q182.95 23.45 184.32 26.30Q185.70 29.15 185.70 32.50Q185.70 33.45 185.07 34.10Q184.45 34.75 183.40 34.75L166.45 34.75Q166.85 38.10 169 40.13Q171.15 42.15 175.20 42.15Q177.45 42.15 179 41.73Q180.55 41.30 181.95 40.60Q182.35 40.40 182.85 40.40Q183.65 40.40 184.25 40.95Q184.85 41.50 184.85 42.35Q184.85 42.95 184.47 43.42Q184.10 43.90 183.55 44.20Q181.90 45.15 179.97 45.77Q178.05 46.40 174.80 46.40M166.45 31.05L181.20 31.05Q181.05 28.45 179.88 26.85Q178.70 25.25 177.05 24.50Q175.40 23.75 173.80 23.75Q172.20 23.75 170.55 24.50Q168.90 25.25 167.75 26.85Q166.60 28.45 166.45 31.05ZM202.25 46.40Q199.25 46.40 196.47 44.85Q193.70 43.30 191.93 40.35Q190.15 37.40 190.15 33.15Q190.15 28.90 191.93 25.95Q193.70 23.00 196.47 21.45Q199.25 19.90 202.25 19.90Q204.90 19.90 207 20.90Q209.10 21.90 210.80 23.70L210.80 11.45Q210.80 10.45 211.47 9.80Q212.15 9.15 213.10 9.15Q214.05 9.15 214.70 9.80Q215.35 10.45 215.35 11.45L215.35 43.90Q215.35 44.85 214.70 45.50Q214.05 46.15 213.10 46.15Q212.15 46.15 211.47 45.50Q210.80 44.85 210.80 43.90L210.80 42.60Q209.10 44.40 207 45.40Q204.90 46.40 202.25 46.40M202.90 42.15Q205.35 42.15 207.35 41.07Q209.35 40 210.80 38.40L210.80 27.90Q209.35 26.30 207.35 25.22Q205.35 24.15 202.90 24.15Q199.35 24.15 197.03 26.42Q194.70 28.70 194.70 33.15Q194.70 37.55 197.03 39.85Q199.35 42.15 202.90 42.15ZM238.40 15.20Q237.35 15.20 236.60 14.45Q235.85 13.70 235.85 12.65L235.85 12.45Q235.85 11.40 236.60 10.65Q237.35 9.90 238.40 9.90L238.70 9.90Q239.75 9.90 240.50 10.65Q241.25 11.40 241.25 12.45L241.25 12.65Q241.25 13.70 240.50 14.45Q239.75 15.20 238.70 15.20L238.40 15.20M238.50 46.15Q237.55 46.15 236.90 45.50Q236.25 44.85 236.25 43.90L236.25 22.45Q236.25 21.45 236.90 20.80Q237.55 20.15 238.50 20.15Q239.50 20.15 240.15 20.80Q240.80 21.45 240.80 22.45L240.80 43.90Q240.80 44.85 240.15 45.50Q239.50 46.15 238.50 46.15ZM250.95 46.15Q250 46.15 249.35 45.50Q248.70 44.85 248.70 43.90L248.70 22.45Q248.70 21.45 249.35 20.80Q250 20.15 250.95 20.15Q251.90 20.15 252.57 20.80Q253.25 21.45 253.25 22.45L253.25 24.50Q254.85 22.75 257.02 21.32Q259.20 19.90 262.55 19.90Q265.40 19.90 267.40 21.22Q269.40 22.55 270.45 24.77Q271.50 27.00 271.50 29.70L271.50 43.90Q271.50 44.85 270.82 45.50Q270.15 46.15 269.20 46.15Q268.25 46.15 267.60 45.50Q266.95 44.85 266.95 43.90L266.95 30.20Q266.95 27.35 265.68 25.72Q264.40 24.10 261.45 24.10Q258.75 24.10 256.75 25.55Q254.75 27.00 253.25 28.90L253.25 43.90Q253.25 44.85 252.57 45.50Q251.90 46.15 250.95 46.15ZM308.45 46.40Q303.50 46.40 299.52 44.23Q295.55 42.05 293.25 38.02Q290.95 34 290.95 28.45Q290.95 22.85 293.25 18.85Q295.55 14.85 299.52 12.67Q303.50 10.50 308.45 10.50Q312.15 10.50 314.85 11.40Q317.55 12.30 319.85 13.60Q320.35 13.85 320.63 14.27Q320.90 14.70 320.95 15.40Q321 16.20 320.45 16.80Q319.90 17.40 318.95 17.40Q318.45 17.40 318.05 17.20Q316.05 16.15 313.95 15.50Q311.85 14.85 308.90 14.85Q304.50 14.85 301.50 16.65Q298.50 18.45 297 21.52Q295.50 24.60 295.50 28.45Q295.50 32.30 297 35.38Q298.50 38.45 301.50 40.25Q304.50 42.05 308.90 42.05Q311.85 42.05 313.95 41.40Q316.05 40.75 318.05 39.70Q318.45 39.50 318.95 39.50Q319.90 39.50 320.45 40.10Q321 40.70 320.95 41.50Q320.90 42.20 320.63 42.63Q320.35 43.05 319.85 43.30Q317.55 44.60 314.85 45.50Q312.15 46.40 308.45 46.40ZM333.40 46.40Q331.25 46.40 329.38 45.50Q327.50 44.60 326.38 42.92Q325.25 41.25 325.25 38.90Q325.25 35.35 328.07 33.07Q330.90 30.80 336.75 30.80L342.80 30.80L342.80 30.40Q342.80 27.05 341.15 25.62Q339.50 24.20 336.10 24.20Q334 24.20 332.43 24.57Q330.85 24.95 329.45 25.40Q329.05 25.50 328.80 25.50Q328.05 25.50 327.50 24.95Q326.95 24.40 326.95 23.60Q326.95 22.25 328.25 21.70Q330 20.95 332.13 20.42Q334.25 19.90 336.90 19.90Q340.55 19.90 342.85 21.35Q345.15 22.80 346.25 25.05Q347.35 27.30 347.35 29.75L347.35 43.90Q347.35 44.85 346.68 45.50Q346 46.15 345.05 46.15Q344.10 46.15 343.45 45.50Q342.80 44.85 342.80 43.90L342.80 42.60Q341.45 44 339.20 45.20Q336.95 46.40 333.40 46.40M335.10 42.40Q337.45 42.40 339.50 41.25Q341.55 40.10 342.80 38.65L342.80 34.45L337.35 34.45Q333.85 34.45 331.82 35.35Q329.80 36.25 329.80 38.40Q329.80 40 330.93 41.20Q332.05 42.40 335.10 42.40ZM357.25 46.15Q356.30 46.15 355.65 45.50Q355 44.85 355 43.90L355 22.45Q355 21.45 355.65 20.80Q356.30 20.15 357.25 20.15Q358.20 20.15 358.88 20.80Q359.55 21.45 359.55 22.45L359.55 24.50Q361.15 22.75 363.32 21.32Q365.50 19.90 368.85 19.90Q371.70 19.90 373.70 21.22Q375.70 22.55 376.75 24.77Q377.80 27.00 377.80 29.70L377.80 43.90Q377.80 44.85 377.13 45.50Q376.45 46.15 375.50 46.15Q374.55 46.15 373.90 45.50Q373.25 44.85 373.25 43.90L373.25 30.20Q373.25 27.35 371.98 25.72Q370.70 24.10 367.75 24.10Q365.05 24.10 363.05 25.55Q361.05 27.00 359.55 28.90L359.55 43.90Q359.55 44.85 358.88 45.50Q358.20 46.15 357.25 46.15ZM391.95 46.40Q389.80 46.40 387.93 45.50Q386.05 44.60 384.93 42.92Q383.80 41.25 383.80 38.90Q383.80 35.35 386.63 33.07Q389.45 30.80 395.30 30.80L401.35 30.80L401.35 30.40Q401.35 27.05 399.70 25.62Q398.05 24.20 394.65 24.20Q392.55 24.20 390.98 24.57Q389.40 24.95 388 25.40Q387.60 25.50 387.35 25.50Q386.60 25.50 386.05 24.95Q385.50 24.40 385.50 23.60Q385.50 22.25 386.80 21.70Q388.55 20.95 390.68 20.42Q392.80 19.90 395.45 19.90Q399.10 19.90 401.40 21.35Q403.70 22.80 404.80 25.05Q405.90 27.30 405.90 29.75L405.90 43.90Q405.90 44.85 405.23 45.50Q404.55 46.15 403.60 46.15Q402.65 46.15 402 45.50Q401.35 44.85 401.35 43.90L401.35 42.60Q400 44 397.75 45.20Q395.50 46.40 391.95 46.40M393.65 42.40Q396 42.40 398.05 41.25Q400.10 40.10 401.35 38.65L401.35 34.45L395.90 34.45Q392.40 34.45 390.38 35.35Q388.35 36.25 388.35 38.40Q388.35 40 389.48 41.20Q390.60 42.40 393.65 42.40ZM424.10 46.40Q421.10 46.40 418.33 44.85Q415.55 43.30 413.78 40.35Q412 37.40 412 33.15Q412 28.90 413.78 25.95Q415.55 23.00 418.33 21.45Q421.10 19.90 424.10 19.90Q426.75 19.90 428.85 20.90Q430.95 21.90 432.65 23.70L432.65 11.45Q432.65 10.45 433.33 9.80Q434 9.15 434.95 9.15Q435.90 9.15 436.55 9.80Q437.20 10.45 437.20 11.45L437.20 43.90Q437.20 44.85 436.55 45.50Q435.90 46.15 434.95 46.15Q434 46.15 433.33 45.50Q432.65 44.85 432.65 43.90L432.65 42.60Q430.95 44.40 428.85 45.40Q426.75 46.40 424.10 46.40M424.75 42.15Q427.20 42.15 429.20 41.07Q431.20 40 432.65 38.40L432.65 27.90Q431.20 26.30 429.20 25.22Q427.20 24.15 424.75 24.15Q421.20 24.15 418.88 26.42Q416.55 28.70 416.55 33.15Q416.55 37.55 418.88 39.85Q421.20 42.15 424.75 42.15ZM451.60 46.40Q449.45 46.40 447.58 45.50Q445.70 44.60 444.58 42.92Q443.45 41.25 443.45 38.90Q443.45 35.35 446.28 33.07Q449.10 30.80 454.95 30.80L461.00 30.80L461.00 30.40Q461.00 27.05 459.35 25.62Q457.70 24.20 454.30 24.20Q452.20 24.20 450.63 24.57Q449.05 24.95 447.65 25.40Q447.25 25.50 447.00 25.50Q446.25 25.50 445.70 24.95Q445.15 24.40 445.15 23.60Q445.15 22.25 446.45 21.70Q448.20 20.95 450.33 20.42Q452.45 19.90 455.10 19.90Q458.75 19.90 461.05 21.35Q463.35 22.80 464.45 25.05Q465.55 27.30 465.55 29.75L465.55 43.90Q465.55 44.85 464.88 45.50Q464.20 46.15 463.25 46.15Q462.30 46.15 461.65 45.50Q461.00 44.85 461.00 43.90L461.00 42.60Q459.65 44 457.40 45.20Q455.15 46.40 451.60 46.40M453.30 42.40Q455.65 42.40 457.70 41.25Q459.75 40.10 461.00 38.65L461.00 34.45L455.55 34.45Q452.05 34.45 450.03 35.35Q448.00 36.25 448.00 38.40Q448.00 40 449.13 41.20Q450.25 42.40 453.30 42.40Z"/></g><g transform="translate(0, 64.3)"><path d="M2.25 46.15Q1.30 46.15 0.65 45.50Q0 44.85 0 43.90L0 13.30Q0 12.35 0.65 11.67Q1.30 11 2.25 11L13.90 11Q18.65 11 21.65 12.35Q24.65 13.70 26.07 15.97Q27.50 18.25 27.50 21.15Q27.50 24.05 25.88 26.55Q24.25 29.05 20.95 30.20Q23.05 30.75 24.30 32.17Q25.55 33.60 26.18 35.40Q26.80 37.20 27 38.88Q27.20 40.55 27.20 41.60L27.20 43.90Q27.20 44.85 26.55 45.50Q25.90 46.15 24.95 46.15Q23.90 46.15 23.27 45.52Q22.65 44.90 22.65 43.90L22.65 42.40Q22.65 41.15 22.48 39.45Q22.30 37.75 21.60 36.10Q20.90 34.45 19.32 33.38Q17.75 32.30 14.90 32.30L4.55 32.30L4.55 43.90Q4.55 44.85 3.87 45.50Q3.20 46.15 2.25 46.15M4.55 28.00L13.60 28.00Q17.80 28.00 20.38 26.35Q22.95 24.70 22.95 21.50Q22.95 19.65 22.10 18.25Q21.25 16.85 19.15 16.07Q17.05 15.30 13.35 15.30L4.55 15.30L4.55 28.00ZM46.10 46.40Q40 46.40 36.58 42.92Q33.15 39.45 33.15 33.15Q33.15 29.75 34.40 26.72Q35.65 23.70 38.30 21.80Q40.95 19.90 45.10 19.90Q48.95 19.90 51.60 21.67Q54.25 23.45 55.63 26.30Q57 29.15 57 32.50Q57 33.45 56.38 34.10Q55.75 34.75 54.70 34.75L37.75 34.75Q38.15 38.10 40.30 40.13Q42.45 42.15 46.50 42.15Q48.75 42.15 50.30 41.73Q51.85 41.30 53.25 40.60Q53.65 40.40 54.15 40.40Q54.95 40.40 55.55 40.95Q56.15 41.50 56.15 42.35Q56.15 42.95 55.78 43.42Q55.40 43.90 54.85 44.20Q53.20 45.15 51.28 45.77Q49.35 46.40 46.10 46.40M37.75 31.05L52.50 31.05Q52.35 28.45 51.17 26.85Q50 25.25 48.35 24.50Q46.70 23.75 45.10 23.75Q43.50 23.75 41.85 24.50Q40.20 25.25 39.05 26.85Q37.90 28.45 37.75 31.05ZM72.05 46.15Q71.10 46.15 70.38 45.60Q69.65 45.05 69.30 44.30L60.60 23.50Q60.35 22.90 60.35 22.45Q60.35 21.50 61 20.82Q61.65 20.15 62.60 20.15Q63.30 20.15 63.88 20.52Q64.45 20.90 64.65 21.45L72.30 40.85L79.95 21.45Q80.20 20.90 80.78 20.52Q81.35 20.15 82 20.15Q82.95 20.15 83.60 20.82Q84.25 21.50 84.25 22.45Q84.25 22.90 84 23.50L75.30 44.30Q74.95 45.05 74.22 45.60Q73.50 46.15 72.55 46.15L72.05 46.15ZM113.25 46.40Q109.90 46.40 107.27 45.77Q104.65 45.15 102.80 44.40Q102.25 44.15 101.88 43.67Q101.50 43.20 101.50 42.50Q101.50 41.70 102.05 41.05Q102.60 40.40 103.50 40.40Q103.95 40.40 104.45 40.60Q105.95 41.20 107.95 41.63Q109.95 42.05 112.40 42.05Q114.60 42.05 116.72 41.57Q118.85 41.10 120.25 39.90Q121.65 38.70 121.65 36.50Q121.65 34.65 120.60 33.22Q119.55 31.80 117.15 31Q114.75 30.20 110.60 30.20L109.80 30.20Q108.95 30.20 108.33 29.57Q107.70 28.95 107.70 28.10Q107.70 27.25 108.33 26.62Q108.95 26.00 109.80 26.00L110.10 26.00Q115 26.00 117.70 24.50Q120.40 23.00 120.40 19.95Q120.40 17.60 118.45 16.17Q116.50 14.75 112.50 14.75Q110.15 14.75 108.22 15.22Q106.30 15.70 104.75 16.40Q104.55 16.45 104.35 16.52Q104.15 16.60 103.85 16.60Q103.10 16.60 102.55 16.07Q102 15.55 102 14.75Q102 13.60 103 13.05Q104.75 12.10 107.25 11.30Q109.75 10.50 112.90 10.50Q118.70 10.50 121.83 12.85Q124.95 15.20 124.95 19.50Q124.95 22.00 124.03 23.67Q123.10 25.35 121.72 26.32Q120.35 27.30 118.90 27.85Q119.95 28.10 121.20 28.65Q122.45 29.20 123.60 30.22Q124.75 31.25 125.47 32.85Q126.20 34.45 126.20 36.75Q126.20 39.95 124.47 42.07Q122.75 44.20 119.83 45.30Q116.90 46.40 113.25 46.40ZM148.40 33.90Q147.55 33.90 146.97 33.32Q146.40 32.75 146.40 31.90Q146.40 31.05 146.97 30.45Q147.55 29.85 148.40 29.85L157.85 29.85Q158.70 29.85 159.30 30.45Q159.90 31.05 159.90 31.90Q159.90 32.75 159.30 33.32Q158.70 33.90 157.85 33.90L148.40 33.90ZM182.25 45.90Q181.10 45.90 180.35 45.17Q179.60 44.45 179.60 43.30Q179.60 40.65 181.05 38.52Q182.50 36.40 184.78 34.63Q187.05 32.85 189.60 31.25Q192.15 29.65 194.42 28.07Q196.70 26.50 198.15 24.77Q199.60 23.05 199.60 21.00Q199.60 18.35 197.82 16.57Q196.05 14.80 191.70 14.80Q189.15 14.80 187 15.32Q184.85 15.85 183.15 16.60Q183.10 16.65 182.80 16.75Q182.50 16.85 182.20 16.85Q181.40 16.85 180.85 16.27Q180.30 15.70 180.30 14.90Q180.30 13.65 181.40 13.05Q183.50 12 186.28 11.25Q189.05 10.50 192.50 10.50Q195.70 10.50 198.30 11.77Q200.90 13.05 202.45 15.32Q204 17.60 204 20.65Q204 23.20 202.75 25.37Q201.50 27.55 199.47 29.37Q197.45 31.20 195.10 32.82Q192.75 34.45 190.50 35.90Q188.25 37.35 186.55 38.77Q184.85 40.20 184.15 41.65L201.55 41.65Q202.45 41.65 203.07 42.27Q203.70 42.90 203.70 43.80Q203.70 44.70 203.07 45.30Q202.45 45.90 201.55 45.90L182.25 45.90ZM235.95 46.40Q232.10 46.40 229.20 44.73Q226.30 43.05 224.72 40.07Q223.15 37.10 223.15 33.15Q223.15 29.20 224.72 26.22Q226.30 23.25 229.20 21.57Q232.10 19.90 235.95 19.90Q239.80 19.90 242.68 21.57Q245.55 23.25 247.15 26.22Q248.75 29.20 248.75 33.15Q248.75 37.10 247.15 40.07Q245.55 43.05 242.68 44.73Q239.80 46.40 235.95 46.40M235.95 42.25Q237.85 42.25 239.75 41.35Q241.65 40.45 242.93 38.42Q244.20 36.40 244.20 33.10Q244.20 29.80 242.93 27.80Q241.65 25.80 239.75 24.92Q237.85 24.05 235.95 24.05Q234.05 24.05 232.13 24.92Q230.20 25.80 228.95 27.80Q227.70 29.80 227.70 33.10Q227.70 36.40 228.95 38.42Q230.20 40.45 232.13 41.35Q234.05 42.25 235.95 42.25ZM259.25 46.15Q258.30 46.15 257.65 45.50Q257 44.85 257 43.90L257 24.30L254.05 24.30Q253.25 24.30 252.68 23.72Q252.10 23.15 252.10 22.35Q252.10 21.50 252.68 20.95Q253.25 20.40 254.05 20.40L257 20.40L257 17.50Q257 14.35 258.13 12.45Q259.25 10.55 261 9.72Q262.75 8.90 264.50 8.90Q265.75 8.90 266.85 9.17Q267.95 9.45 268.85 9.90Q269.30 10.10 269.65 10.57Q270 11.05 270 11.65Q270 12.35 269.48 12.95Q268.95 13.55 268.15 13.55Q267.55 13.55 266.95 13.40Q266.35 13.25 265.65 13.25Q263.80 13.25 262.68 14.12Q261.55 15.00 261.55 17.65L261.55 20.40L267.80 20.40Q268.65 20.40 269.20 20.95Q269.75 21.50 269.75 22.35Q269.75 23.15 269.20 23.72Q268.65 24.30 267.80 24.30L261.55 24.30L261.55 43.90Q261.55 44.85 260.90 45.50Q260.25 46.15 259.25 46.15ZM294.75 46.15Q293.80 46.15 293.15 45.50Q292.50 44.85 292.50 43.90Q292.50 43.30 292.80 42.70L306.55 15.35L288.40 15.35Q287.50 15.35 286.88 14.72Q286.25 14.10 286.25 13.20Q286.25 12.30 286.88 11.65Q287.50 11 288.40 11L308.80 11Q310 11 310.80 11.75Q311.60 12.50 311.60 13.65Q311.60 14.75 311.10 15.85L296.90 44.90Q296.25 46.15 294.75 46.15ZM330.35 46.40Q325.85 46.40 322.82 44.15Q319.80 41.90 318.30 37.85Q316.80 33.80 316.80 28.45Q316.80 23.10 318.30 19.05Q319.80 15.00 322.82 12.75Q325.85 10.50 330.35 10.50Q334.85 10.50 337.85 12.75Q340.85 15.00 342.38 19.05Q343.90 23.10 343.90 28.45Q343.90 33.80 342.38 37.85Q340.85 41.90 337.85 44.15Q334.85 46.40 330.35 46.40M330.35 42.20Q334.80 42.20 337.07 38.50Q339.35 34.80 339.35 28.45Q339.35 22.15 337.07 18.45Q334.80 14.75 330.35 14.75Q325.95 14.75 323.65 18.45Q321.35 22.15 321.35 28.45Q321.35 34.80 323.65 38.50Q325.95 42.20 330.35 42.20ZM364.50 33.90Q363.65 33.90 363.07 33.32Q362.50 32.75 362.50 31.90Q362.50 31.05 363.07 30.45Q363.65 29.85 364.50 29.85L373.95 29.85Q374.80 29.85 375.40 30.45Q376.00 31.05 376.00 31.90Q376.00 32.75 375.40 33.32Q374.80 33.90 373.95 33.90L364.50 33.90ZM400.85 46.40Q398.95 46.40 397.27 45.95Q395.60 45.50 394.20 44.70Q393.75 44.45 393.42 44Q393.10 43.55 393.10 42.85Q393.10 42.05 393.62 41.42Q394.15 40.80 395.00 40.80Q395.50 40.80 395.90 41Q396.90 41.50 398.07 41.80Q399.25 42.10 400.55 42.10Q402.05 42.10 403.42 41.55Q404.80 41 405.70 39.42Q406.60 37.85 406.60 34.70L406.60 13.05Q406.60 12.10 407.25 11.42Q407.90 10.75 408.85 10.75Q409.80 10.75 410.47 11.42Q411.15 12.10 411.15 13.05L411.15 34.40Q411.15 38 410.27 40.32Q409.40 42.65 407.92 43.98Q406.45 45.30 404.60 45.85Q402.75 46.40 400.85 46.40ZM422.85 46.15Q421.90 46.15 421.25 45.50Q420.60 44.85 420.60 43.90L420.60 14.05Q420.60 12.70 421.55 11.72Q422.50 10.75 423.85 10.75L425.50 10.75Q426.50 10.75 427.35 11.35Q428.20 11.95 428.55 12.85L439.90 41.15L451.25 12.85Q451.65 11.95 452.47 11.35Q453.30 10.75 454.30 10.75L455.95 10.75Q457.30 10.75 458.25 11.72Q459.20 12.70 459.20 14.05L459.20 43.90Q459.20 44.85 458.55 45.50Q457.90 46.15 456.95 46.15Q456.00 46.15 455.32 45.50Q454.65 44.85 454.65 43.90L454.65 15.50L443.10 44.05Q442.70 45 441.85 45.57Q441.00 46.15 439.90 46.15Q438.80 46.15 437.95 45.57Q437.10 45 436.70 44.05L425.15 15.50L425.15 43.90Q425.15 44.85 424.47 45.50Q423.80 46.15 422.85 46.15Z"/></g></g></svg>